<?xml version="1.0" standalone="no"?>
<!DOCTYPE svg PUBLIC "-//W3C//DTD SVG 20010904//EN"
 "http://www.w3.org/TR/2001/REC-SVG-20010904/DTD/svg10.dtd">
<svg version="1.0" xmlns="http://www.w3.org/2000/svg"
 width="512.000000pt" height="512.000000pt" viewBox="0 0 512.000000 512.000000"
 preserveAspectRatio="xMidYMid meet">
<metadata>
Created by potrace 1.11, written by Peter Selinger 2001-2013
</metadata>
<g transform="translate(0.000000,512.000000) scale(0.100000,-0.100000)"
fill="#000000" stroke="none">
<path d="M0 2560 l0 -2560 2560 0 2560 0 0 2560 0 2560 -2560 0 -2560 0 0
-2560z m1000 2030 l0 -160 155 0 155 0 0 160 0 160 1250 0 1250 0 0 -160 0
-160 155 0 155 0 0 160 0 160 315 0 315 0 0 -315 0 -315 -155 0 -155 0 0 -155
0 -155 155 0 155 0 0 -1250 0 -1250 -155 0 -155 0 0 -155 0 -155 155 0 155 0
0 -315 0 -315 -315 0 -315 0 0 155 0 155 -155 0 -155 0 0 -155 0 -155 -1250 0
-1250 0 0 93 c0 81 2 94 20 105 19 12 20 19 13 157 l-6 145 133 0 c159 0 170
5 170 82 l0 48 1240 0 1240 0 0 235 0 235 92 0 c129 0 128 -1 128 167 l0 133
132 0 c108 0 135 3 150 17 17 15 18 52 18 751 0 670 -1 737 -17 754 -14 16
-33 18 -150 18 l-133 0 0 405 0 405 50 0 50 0 0 155 0 155 -160 0 -160 0 0
-110 0 -110 -340 0 -340 0 0 132 c0 108 -3 135 -17 150 -15 17 -52 18 -751 18
-670 0 -737 -1 -754 -17 -16 -14 -18 -33 -18 -150 l0 -133 -132 0 c-146 0
-168 -8 -168 -62 l0 -28 -300 0 -300 0 0 -1455 0 -1455 -133 0 c-117 0 -136
-2 -150 -18 -14 -15 -18 -57 -23 -265 -5 -167 -4 -247 3 -247 6 0 13 -18 16
-41 3 -22 8 -44 12 -47 4 -4 67 -8 141 -10 l134 -4 0 -104 0 -104 -315 0 -315
0 0 315 0 315 160 0 160 0 0 155 0 155 -160 0 -160 0 0 1250 0 1250 160 0 160
0 0 155 0 155 -160 0 -160 0 0 315 0 315 315 0 315 0 0 -160z m2420 -550 l0
-150 300 0 300 0 0 -300 0 -300 150 0 150 0 0 -750 0 -750 -150 0 -150 0 0
600 0 600 -150 0 -150 0 0 150 0 150 -150 0 -150 0 0 150 0 150 -150 0 -150 0
0 150 0 150 -600 0 -600 0 0 150 0 150 750 0 750 0 0 -150z m-1520 -333 c0
-91 2 -106 20 -122 19 -17 20 -31 20 -212 l0 -193 -315 0 -315 0 0 315 0 315
295 0 295 0 0 -103z m970 -267 c0 -115 -2 -130 -17 -130 -33 0 -53 -31 -53
-82 l0 -48 -275 0 -275 0 0 195 0 195 310 0 310 0 0 -130z m250 -600 l0 -150
-150 0 -150 0 0 150 0 150 150 0 150 0 0 -150z m-1180 -198 c0 -216 -1 -230
-20 -247 -16 -14 -20 -31 -20 -82 l0 -63 -295 0 -295 0 0 310 0 310 315 0 315
0 0 -228z m560 148 l0 -80 -125 0 -125 0 0 80 0 80 125 0 125 0 0 -80z m1200
-230 l0 -310 -255 0 -255 0 0 210 0 210 107 0 c139 0 143 3 143 117 l0 83 130
0 130 0 0 -310z m-1180 -320 l0 -150 -150 0 -150 0 0 150 0 150 150 0 150 0 0
-150z m350 70 c0 -47 -3 -60 -15 -60 -12 0 -15 13 -15 60 0 47 3 60 15 60 12
0 15 -13 15 -60z m-1280 -423 c0 -24 -5 -48 -12 -55 -8 -8 -54 -12 -140 -12
l-128 0 0 55 0 55 140 0 140 0 0 -43z m1280 -267 l0 -310 -310 0 -310 0 0 230
0 230 127 0 c156 0 163 4 163 97 l0 63 165 0 165 0 0 -310z m830 248 c0 -76
16 -98 72 -98 l38 0 0 -230 0 -230 -310 0 -310 0 0 310 0 310 255 0 255 0 0
-62z m-1780 -228 l0 -150 -150 0 -150 0 0 150 0 150 150 0 150 0 0 -150z
m-600 -600 l0 -150 -150 0 -150 0 0 150 0 150 150 0 150 0 0 -150z"/>
<path d="M690 4275 l0 -155 155 0 155 0 0 155 0 155 -155 0 -155 0 0 -155z"/>
<path d="M4120 840 l0 -160 160 0 160 0 0 160 0 160 -160 0 -160 0 0 -160z"/>
</g>
</svg>
